# Blender v2.82 (sub 7) OBJ File: 'heart.blend'
# www.blender.org
mtllib heart.mtl
o Plane.002_Plane.007
v 1.222007 -0.278499 0.159202
v 0.877068 -0.386762 0.228189
v 1.222007 0.308239 0.155308
v 0.877068 0.417408 0.222852
v 0.519909 0.015084 0.189543
v 1.168090 0.015040 0.182834
v 0.843999 0.015748 0.289594
v 1.222007 -0.280586 -0.155310
v 0.877068 -0.389755 -0.222854
v 1.495793 -0.169463 0.001216
v 1.528276 -0.497012 0.003389
v 1.347078 -0.700818 0.004742
v 1.084488 -0.794251 0.005362
v 0.707434 -0.623995 0.004232
v 0.407022 -0.278732 0.001941
v 1.222007 0.306151 -0.159204
v 0.877068 0.414415 -0.228191
v 1.495793 0.197116 -0.001217
v 1.528276 0.524664 -0.003391
v 1.347078 0.728471 -0.004744
v 1.084488 0.821903 -0.005364
v 0.707434 0.651647 -0.004234
v 0.407022 0.306385 -0.001942
v 0.519909 0.012568 -0.189545
v 1.168090 0.012613 -0.182836
v 0.843999 0.011904 -0.289595
v 1.360520 0.013826 -0.000001
v 0.230434 0.013826 -0.000001
vn 0.5528 0.1811 0.8134
vn 0.4830 0.0537 0.8740
vn 0.2901 -0.2518 0.9233
vn 0.1131 -0.3116 0.9435
vn 0.2866 -0.3432 0.8945
vn 0.2330 -0.1279 0.9640
vn 0.3128 -0.0190 0.9496
vn -0.2905 -0.1676 0.9421
vn -0.4702 -0.3395 0.8147
vn -0.4705 -0.4041 0.7844
vn -0.2556 -0.5607 0.7876
vn -0.5201 -0.3087 0.7964
vn 0.5528 -0.1703 0.8158
vn 0.4830 -0.0421 0.8746
vn 0.2901 0.2640 0.9199
vn 0.1131 0.3241 0.9392
vn 0.2866 0.3551 0.8898
vn 0.2330 0.1407 0.9623
vn 0.3128 0.0316 0.9493
vn -0.2905 0.1801 0.9398
vn -0.4702 0.3503 0.8101
vn -0.4705 0.4145 0.7790
vn -0.2556 0.5712 0.7800
vn -0.5201 0.3192 0.7922
vn 0.5528 0.1703 -0.8158
vn 0.4830 0.0421 -0.8746
vn 0.2901 -0.2640 -0.9199
vn 0.1131 -0.3241 -0.9392
vn 0.2866 -0.3551 -0.8898
vn 0.2330 -0.1407 -0.9623
vn 0.3128 -0.0316 -0.9493
vn -0.2905 -0.1801 -0.9398
vn -0.4702 -0.3503 -0.8101
vn -0.4705 -0.4145 -0.7790
vn -0.2556 -0.5712 -0.7800
vn -0.5201 -0.3192 -0.7922
vn 0.5528 -0.1811 -0.8134
vn 0.4830 -0.0537 -0.8740
vn 0.2901 0.2518 -0.9233
vn 0.1131 0.3116 -0.9435
vn 0.2866 0.3432 -0.8945
vn 0.2330 0.1279 -0.9640
vn 0.3128 0.0190 -0.9496
vn -0.2905 0.1676 -0.9421
vn -0.4702 0.3395 -0.8147
vn -0.4705 0.4041 -0.7844
vn -0.2556 0.5607 -0.7876
vn -0.5201 0.3087 -0.7964
usemtl Material.001
s off
f 27//1 6//1 1//1 10//1
f 10//2 1//2 11//2
f 11//3 1//3 12//3
f 12//4 1//4 13//4
f 13//5 1//5 2//5
f 2//6 1//6 7//6
f 7//7 1//7 6//7
f 2//8 7//8 5//8
f 2//9 5//9 15//9
f 14//10 2//10 15//10
f 13//11 2//11 14//11
f 28//12 15//12 5//12
f 27//13 18//13 3//13 6//13
f 18//14 19//14 3//14
f 19//15 20//15 3//15
f 20//16 21//16 3//16
f 21//17 4//17 3//17
f 4//18 7//18 3//18
f 7//19 6//19 3//19
f 4//20 5//20 7//20
f 4//21 23//21 5//21
f 22//22 23//22 4//22
f 21//23 22//23 4//23
f 28//24 5//24 23//24
f 27//25 10//25 8//25 25//25
f 10//26 11//26 8//26
f 11//27 12//27 8//27
f 12//28 13//28 8//28
f 13//29 9//29 8//29
f 9//30 26//30 8//30
f 26//31 25//31 8//31
f 9//32 24//32 26//32
f 9//33 15//33 24//33
f 14//34 15//34 9//34
f 13//35 14//35 9//35
f 28//36 24//36 15//36
f 27//37 25//37 16//37 18//37
f 18//38 16//38 19//38
f 19//39 16//39 20//39
f 20//40 16//40 21//40
f 21//41 16//41 17//41
f 17//42 16//42 26//42
f 26//43 16//43 25//43
f 17//44 26//44 24//44
f 17//45 24//45 23//45
f 22//46 17//46 23//46
f 21//47 17//47 22//47
f 28//48 23//48 24//48
o Plane.001_Plane.006
v -1.222117 0.307227 0.157211
v -0.877178 0.415957 0.225460
v -1.222117 -0.279523 0.157307
v -0.877178 -0.388230 0.225592
v -0.520019 0.013857 0.189547
v -1.168199 0.013856 0.182839
v -0.844109 0.013874 0.289600
v -1.222117 0.307176 -0.157308
v -0.877178 0.415883 -0.225593
v -1.495903 0.197120 -0.000030
v -1.528385 0.524676 -0.000084
v -1.347187 0.728487 -0.000117
v -1.084598 0.821921 -0.000133
v -0.707544 0.651661 -0.000105
v -0.407131 0.306391 -0.000048
v -1.222117 -0.279574 -0.157212
v -0.877178 -0.388304 -0.225461
v -1.495903 -0.169467 0.000030
v -1.528386 -0.497023 0.000083
v -1.347188 -0.700834 0.000116
v -1.084598 -0.794268 0.000132
v -0.707545 -0.624009 0.000104
v -0.407132 -0.278739 0.000047
v -0.520019 0.013795 -0.189549
v -1.168200 0.013797 -0.182840
v -0.844109 0.013779 -0.289601
v -1.360630 0.013827 -0.000000
v -0.230544 0.013826 -0.000001
vn -0.5528 -0.1755 0.8146
vn -0.4830 -0.0477 0.8743
vn -0.2901 0.2580 0.9216
vn -0.1131 0.3180 0.9413
vn -0.2866 0.3493 0.8921
vn -0.2330 0.1345 0.9631
vn -0.3128 0.0255 0.9495
vn 0.2905 0.1740 0.9409
vn 0.4702 0.3451 0.8123
vn 0.4705 0.4095 0.7817
vn 0.2556 0.5661 0.7837
vn 0.5201 0.3141 0.7943
vn -0.5528 0.1758 0.8146
vn -0.4830 0.0480 0.8743
vn -0.2901 -0.2577 0.9216
vn -0.1131 -0.3177 0.9414
vn -0.2866 -0.3490 0.8922
vn -0.2330 -0.1342 0.9632
vn -0.3128 -0.0251 0.9495
vn 0.2905 -0.1737 0.9410
vn 0.4702 -0.3448 0.8124
vn 0.4705 -0.4092 0.7818
vn 0.2556 -0.5658 0.7839
vn 0.5201 -0.3138 0.7944
vn -0.5528 -0.1758 -0.8146
vn -0.4830 -0.0480 -0.8743
vn -0.2901 0.2577 -0.9216
vn -0.1131 0.3177 -0.9414
vn -0.2866 0.3490 -0.8922
vn -0.2330 0.1342 -0.9632
vn -0.3128 0.0251 -0.9495
vn 0.2905 0.1737 -0.9410
vn 0.4702 0.3448 -0.8124
vn 0.4705 0.4092 -0.7818
vn 0.2556 0.5658 -0.7839
vn 0.5201 0.3138 -0.7944
vn -0.5528 0.1755 -0.8146
vn -0.4830 0.0478 -0.8743
vn -0.2901 -0.2580 -0.9216
vn -0.1131 -0.3180 -0.9413
vn -0.2866 -0.3493 -0.8921
vn -0.2330 -0.1345 -0.9631
vn -0.3128 -0.0255 -0.9495
vn 0.2905 -0.1740 -0.9409
vn 0.4702 -0.3451 -0.8123
vn 0.4705 -0.4095 -0.7817
vn 0.2556 -0.5661 -0.7837
vn 0.5201 -0.3141 -0.7943
usemtl Material.001
s off
f 55//49 34//49 29//49 38//49
f 38//50 29//50 39//50
f 39//51 29//51 40//51
f 40//52 29//52 41//52
f 41//53 29//53 30//53
f 30//54 29//54 35//54
f 35//55 29//55 34//55
f 30//56 35//56 33//56
f 30//57 33//57 43//57
f 42//58 30//58 43//58
f 41//59 30//59 42//59
f 56//60 43//60 33//60
f 55//61 46//61 31//61 34//61
f 46//62 47//62 31//62
f 47//63 48//63 31//63
f 48//64 49//64 31//64
f 49//65 32//65 31//65
f 32//66 35//66 31//66
f 35//67 34//67 31//67
f 32//68 33//68 35//68
f 32//69 51//69 33//69
f 50//70 51//70 32//70
f 49//71 50//71 32//71
f 56//72 33//72 51//72
f 55//73 38//73 36//73 53//73
f 38//74 39//74 36//74
f 39//75 40//75 36//75
f 40//76 41//76 36//76
f 41//77 37//77 36//77
f 37//78 54//78 36//78
f 54//79 53//79 36//79
f 37//80 52//80 54//80
f 37//81 43//81 52//81
f 42//82 43//82 37//82
f 41//83 42//83 37//83
f 56//84 52//84 43//84
f 55//85 53//85 44//85 46//85
f 46//86 44//86 47//86
f 47//87 44//87 48//87
f 48//88 44//88 49//88
f 49//89 44//89 45//89
f 45//90 44//90 54//90
f 54//91 44//91 53//91
f 45//92 54//92 52//92
f 45//93 52//93 51//93
f 50//94 45//94 51//94
f 49//95 45//95 50//95
f 56//96 51//96 52//96
o Plane.000_Plane.005
v -0.292981 -1.208235 0.158095
v -0.401504 -0.863296 0.226671
v 0.293767 -1.208236 0.156422
v 0.402680 -0.863297 0.224379
v 0.000486 -0.506137 0.189547
v 0.000466 -1.154318 0.182838
v 0.000771 -0.830228 0.289599
v -0.293877 -1.208235 -0.156423
v -0.402790 -0.863297 -0.224380
v -0.183348 -1.482021 0.000522
v -0.510903 -1.514504 0.001456
v -0.714712 -1.333306 0.002037
v -0.808147 -1.070716 0.002303
v -0.637887 -0.693663 0.001818
v -0.292618 -0.393250 0.000833
v 0.292870 -1.208236 -0.158096
v 0.401394 -0.863297 -0.226672
v 0.183238 -1.482021 -0.000523
v 0.510792 -1.514504 -0.001457
v 0.714602 -1.333307 -0.002038
v 0.808037 -1.070717 -0.002304
v 0.637778 -0.693663 -0.001819
v 0.292509 -0.393250 -0.000835
v -0.000595 -0.506137 -0.189548
v -0.000576 -1.154318 -0.182839
v -0.000880 -0.830228 -0.289600
v -0.000055 -1.346749 -0.000001
v -0.000055 -0.216663 -0.000001
vn 0.1780 -0.5528 0.8141
vn 0.0504 -0.4830 0.8742
vn -0.2553 -0.2901 0.9223
vn -0.3151 -0.1131 0.9423
vn -0.3466 -0.2866 0.8931
vn -0.1316 -0.2330 0.9635
vn -0.0226 -0.3128 0.9496
vn -0.1712 0.2905 0.9414
vn -0.3426 0.4702 0.8134
vn -0.4071 0.4705 0.7829
vn -0.5637 0.2556 0.7854
vn -0.3117 0.5201 0.7952
vn -0.1734 -0.5528 0.8151
vn -0.0454 -0.4830 0.8745
vn 0.2605 -0.2901 0.9209
vn 0.3205 -0.1131 0.9405
vn 0.3517 -0.2866 0.8912
vn 0.1371 -0.2330 0.9628
vn 0.0280 -0.3128 0.9494
vn 0.1765 0.2905 0.9405
vn 0.3472 0.4702 0.8114
vn 0.4116 0.4705 0.7806
vn 0.5682 0.2556 0.7822
vn 0.3162 0.5201 0.7934
vn 0.1734 -0.5528 -0.8151
vn 0.0454 -0.4830 -0.8745
vn -0.2605 -0.2901 -0.9209
vn -0.3205 -0.1131 -0.9405
vn -0.3517 -0.2866 -0.8912
vn -0.1371 -0.2330 -0.9628
vn -0.0280 -0.3128 -0.9494
vn -0.1765 0.2905 -0.9405
vn -0.3472 0.4702 -0.8114
vn -0.4116 0.4705 -0.7806
vn -0.5682 0.2556 -0.7822
vn -0.3162 0.5201 -0.7934
vn -0.1780 -0.5528 -0.8141
vn -0.0504 -0.4830 -0.8742
vn 0.2553 -0.2901 -0.9223
vn 0.3151 -0.1131 -0.9423
vn 0.3466 -0.2866 -0.8931
vn 0.1316 -0.2330 -0.9635
vn 0.0226 -0.3128 -0.9496
vn 0.1712 0.2905 -0.9414
vn 0.3426 0.4702 -0.8134
vn 0.4071 0.4705 -0.7829
vn 0.5637 0.2556 -0.7854
vn 0.3117 0.5201 -0.7952
usemtl Material.001
s off
f 83//97 62//97 57//97 66//97
f 66//98 57//98 67//98
f 67//99 57//99 68//99
f 68//100 57//100 69//100
f 69//101 57//101 58//101
f 58//102 57//102 63//102
f 63//103 57//103 62//103
f 58//104 63//104 61//104
f 58//105 61//105 71//105
f 70//106 58//106 71//106
f 69//107 58//107 70//107
f 84//108 71//108 61//108
f 83//109 74//109 59//109 62//109
f 74//110 75//110 59//110
f 75//111 76//111 59//111
f 76//112 77//112 59//112
f 77//113 60//113 59//113
f 60//114 63//114 59//114
f 63//115 62//115 59//115
f 60//116 61//116 63//116
f 60//117 79//117 61//117
f 78//118 79//118 60//118
f 77//119 78//119 60//119
f 84//120 61//120 79//120
f 83//121 66//121 64//121 81//121
f 66//122 67//122 64//122
f 67//123 68//123 64//123
f 68//124 69//124 64//124
f 69//125 65//125 64//125
f 65//126 82//126 64//126
f 82//127 81//127 64//127
f 65//128 80//128 82//128
f 65//129 71//129 80//129
f 70//130 71//130 65//130
f 69//131 70//131 65//131
f 84//132 80//132 71//132
f 83//133 81//133 72//133 74//133
f 74//134 72//134 75//134
f 75//135 72//135 76//135
f 76//136 72//136 77//136
f 77//137 72//137 73//137
f 73//138 72//138 82//138
f 82//139 72//139 81//139
f 73//140 82//140 80//140
f 73//141 80//141 79//141
f 78//142 73//142 79//142
f 77//143 73//143 78//143
f 84//144 79//144 80//144
o Plane.004_Plane.011
v 0.295920 1.235888 0.152308
v 0.405771 0.890949 0.218739
v -0.290747 1.235888 0.162165
v -0.398303 0.890949 0.232249
v 0.003129 0.533790 0.189521
v 0.003016 1.181971 0.182813
v 0.004810 0.857880 0.289559
v 0.290637 1.235888 -0.162166
v 0.398194 0.890949 -0.232250
v 0.183213 1.509674 -0.003080
v 0.510722 1.542157 -0.008582
v 0.714504 1.360959 -0.012006
v 0.807926 1.098369 -0.013575
v 0.637690 0.721316 -0.010715
v 0.292469 0.420903 -0.004915
v -0.296030 1.235888 -0.152310
v -0.405880 0.890949 -0.218741
v -0.183323 1.509674 0.003078
v -0.510832 1.542157 0.008581
v -0.714614 1.360959 0.012005
v -0.808036 1.098369 0.013574
v -0.637800 0.721316 0.010714
v -0.292578 0.420903 0.004914
v -0.003239 0.533790 -0.189522
v -0.003126 1.181971 -0.182814
v -0.004920 0.857881 -0.289561
v -0.000055 1.374402 -0.000001
v -0.000055 0.244315 -0.000001
vn -0.1620 0.5528 0.8174
vn -0.0332 0.4830 0.8750
vn 0.2733 0.2901 0.9171
vn 0.3336 0.1131 0.9359
vn 0.3641 0.2866 0.8862
vn 0.1505 0.2330 0.9608
vn 0.0412 0.3128 0.9489
vn 0.1896 -0.2905 0.9379
vn 0.3585 -0.4702 0.8065
vn 0.4224 -0.4705 0.7748
vn 0.5790 -0.2556 0.7742
vn 0.3272 -0.5201 0.7889
vn 0.1893 0.5528 0.8115
vn 0.0626 0.4830 0.8734
vn -0.2424 0.2901 0.9258
vn -0.3020 0.1131 0.9466
vn -0.3341 0.2866 0.8979
vn -0.1181 0.2330 0.9653
vn -0.0093 0.3128 0.9498
vn -0.1580 -0.2905 0.9437
vn -0.3312 -0.4702 0.8181
vn -0.3961 -0.4705 0.7885
vn -0.5527 -0.2556 0.7932
vn -0.3005 -0.5201 0.7995
vn -0.1893 0.5528 -0.8115
vn -0.0626 0.4830 -0.8734
vn 0.2424 0.2901 -0.9258
vn 0.3020 0.1131 -0.9466
vn 0.3341 0.2866 -0.8979
vn 0.1181 0.2330 -0.9653
vn 0.0093 0.3128 -0.9498
vn 0.1580 -0.2905 -0.9437
vn 0.3312 -0.4702 -0.8181
vn 0.3961 -0.4705 -0.7885
vn 0.5527 -0.2556 -0.7932
vn 0.3005 -0.5201 -0.7995
vn 0.1620 0.5528 -0.8174
vn 0.0332 0.4830 -0.8750
vn -0.2733 0.2901 -0.9171
vn -0.3336 0.1131 -0.9359
vn -0.3641 0.2866 -0.8862
vn -0.1505 0.2330 -0.9608
vn -0.0412 0.3128 -0.9489
vn -0.1896 -0.2905 -0.9379
vn -0.3585 -0.4702 -0.8065
vn -0.4224 -0.4705 -0.7748
vn -0.5790 -0.2556 -0.7742
vn -0.3272 -0.5201 -0.7889
usemtl Material.001
s off
f 111//145 90//145 85//145 94//145
f 94//146 85//146 95//146
f 95//147 85//147 96//147
f 96//148 85//148 97//148
f 97//149 85//149 86//149
f 86//150 85//150 91//150
f 91//151 85//151 90//151
f 86//152 91//152 89//152
f 86//153 89//153 99//153
f 98//154 86//154 99//154
f 97//155 86//155 98//155
f 112//156 99//156 89//156
f 111//157 102//157 87//157 90//157
f 102//158 103//158 87//158
f 103//159 104//159 87//159
f 104//160 105//160 87//160
f 105//161 88//161 87//161
f 88//162 91//162 87//162
f 91//163 90//163 87//163
f 88//164 89//164 91//164
f 88//165 107//165 89//165
f 106//166 107//166 88//166
f 105//167 106//167 88//167
f 112//168 89//168 107//168
f 111//169 94//169 92//169 109//169
f 94//170 95//170 92//170
f 95//171 96//171 92//171
f 96//172 97//172 92//172
f 97//173 93//173 92//173
f 93//174 110//174 92//174
f 110//175 109//175 92//175
f 93//176 108//176 110//176
f 93//177 99//177 108//177
f 98//178 99//178 93//178
f 97//179 98//179 93//179
f 112//180 108//180 99//180
f 111//181 109//181 100//181 102//181
f 102//182 100//182 103//182
f 103//183 100//183 104//183
f 104//184 100//184 105//184
f 105//185 100//185 101//185
f 101//186 100//186 110//186
f 110//187 100//187 109//187
f 101//188 110//188 108//188
f 101//189 108//189 107//189
f 106//190 101//190 107//190
f 105//191 101//191 106//191
f 112//192 107//192 108//192
